HIERARCHY
ROOT Hips
{
	OFFSET -0.001795 -0.223333 0.028219
	CHANNELS 6 Xposition Yposition Zposition Zrotation Yrotation Xrotation 
	JOINT LeftUpLeg
	{
		OFFSET 0.069520 -0.091406 -0.006815
		CHANNELS 3 Zrotation Yrotation Xrotation
		JOINT LeftLeg
		{
			OFFSET 0.034277 -0.375199 -0.004496
			CHANNELS 3 Zrotation Yrotation Xrotation
			JOINT LeftFoot
			{
				OFFSET -0.013596 -0.397961 -0.043693
				CHANNELS 3 Zrotation Yrotation Xrotation
				JOINT LeftToe
				{
					OFFSET 0.026358 -0.055791 0.119288
					CHANNELS 3 Zrotation Yrotation Xrotation
					End Site
					{
						OFFSET 0.000000 0.000000 0.000000
					}
				}
			}
		}
	}
	JOINT RightUpLeg
	{
		OFFSET -0.067670 -0.090522 -0.004320
		CHANNELS 3 Zrotation Yrotation Xrotation
		JOINT RightLeg
		{
			OFFSET -0.038290 -0.382569 -0.008850
			CHANNELS 3 Zrotation Yrotation Xrotation
			JOINT RightFoot
			{
				OFFSET 0.015774 -0.398415 -0.042312
				CHANNELS 3 Zrotation Yrotation Xrotation
				JOINT RightToe
				{
					OFFSET -0.025372 -0.048144 0.123348
					CHANNELS 3 Zrotation Yrotation Xrotation
					End Site
					{
						OFFSET 0.000000 0.000000 0.000000
					}
				}
			}
		}
	}
	JOINT Spine
	{
		OFFSET -0.002533 0.108963 -0.026696
		CHANNELS 3 Zrotation Yrotation Xrotation
		JOINT Spine1
		{
			OFFSET 0.005487 0.135180 0.001092
			CHANNELS 3 Zrotation Yrotation Xrotation
			JOINT Spine2
			{
				OFFSET 0.001457 0.052922 0.025425
				CHANNELS 3 Zrotation Yrotation Xrotation
				JOINT Neck
				{
					OFFSET -0.002778 0.213870 -0.042857
					CHANNELS 3 Zrotation Yrotation Xrotation
					JOINT Head
					{
						OFFSET 0.005152 0.064970 0.051349
						CHANNELS 3 Zrotation Yrotation Xrotation
						End Site
						{
							OFFSET 0.000000 0.000000 0.000000
						}
					}
				}
				JOINT LeftShoulder
				{
					OFFSET 0.078845 0.121749 -0.034090
					CHANNELS 3 Zrotation Yrotation Xrotation
					JOINT LeftArm
					{
						OFFSET 0.090977 0.030469 -0.008868
						CHANNELS 3 Zrotation Yrotation Xrotation
						JOINT LeftForeArm
						{
							OFFSET 0.259612 -0.012772 -0.027456
							CHANNELS 3 Zrotation Yrotation Xrotation
							JOINT LeftHand
							{
								OFFSET 0.249234 0.008986 -0.001171
								CHANNELS 3 Zrotation Yrotation Xrotation
								End Site
								{
									OFFSET 0.000000 0.000000 0.000000
								}
							}
						}
					}
				}
				JOINT RightShoulder
				{
					OFFSET -0.081759 0.118833 -0.038615
					CHANNELS 3 Zrotation Yrotation Xrotation
					JOINT RightArm
					{
						OFFSET -0.096012 0.032551 -0.009143
						CHANNELS 3 Zrotation Yrotation Xrotation
						JOINT RightForeArm
						{
							OFFSET -0.253742 -0.013329 -0.021401
							CHANNELS 3 Zrotation Yrotation Xrotation
							JOINT RightHand
							{
								OFFSET -0.255298 0.007772 -0.005559
								CHANNELS 3 Zrotation Yrotation Xrotation
								End Site
								{
									OFFSET 0.000000 0.000000 0.000000
								}
							}
						}
					}
				}
			}
		}
	}
}
MOTION
Frames: 16
Frame Time: 0.050000
0.000000 0.949993 0.000000 -0.864269 0.640571 2.232757 5.737810 -0.217021 -2.689338 -5.290111 0.554705 -0.965001 3.262362 9.025925 7.786581 0.000000 0.000000 0.000000 -3.116468 0.392111 -4.202555 3.413507 -0.359469 0.586510 -1.483686 -6.757214 8.530296 0.000000 0.000000 0.000000 -2.134313 0.015276 0.762689 4.557206 -0.926569 -17.223091 -0.415392 -0.964014 26.757684 0.252113 1.444216 -27.717898 0.000000 0.000000 0.000000 -33.074910 -8.205486 3.793085 -42.890618 -4.402387 -5.547846 -8.699003 -53.209761 7.481213 0.000000 0.000000 0.000000 26.315819 13.832485 6.860109 48.220635 3.486195 -5.290243 -2.312089 56.785836 1.808094 0.000000 0.000000 0.000000 
-0.000064 0.949196 0.000676 -0.911459 -0.260743 3.149827 5.970824 -0.225664 -2.913890 -5.685209 0.592757 -1.709340 3.588680 9.466434 7.494874 0.000000 0.000000 0.000000 -3.613009 0.411938 -4.358592 4.212206 -0.439851 -0.108632 -1.413890 -6.825083 8.938568 0.000000 0.000000 0.000000 -2.548400 0.065695 -0.955517 4.159960 -0.790307 -17.678021 0.247425 -0.596960 27.980559 1.419411 0.817237 -28.583320 0.000000 0.000000 0.000000 -32.333404 -8.455947 4.169901 -44.172886 -4.931913 -5.678124 -8.615503 -56.914140 8.300160 0.000000 0.000000 0.000000 25.591918 13.698721 6.706806 48.513725 4.332344 -5.101216 -2.501002 61.046248 1.987848 0.000000 0.000000 0.000000 
-0.000092 0.949741 0.001484 -0.846682 0.114310 3.349645 6.080948 -0.244772 -3.243681 -5.874213 0.612549 -1.285053 3.828216 10.076534 8.269092 0.000000 0.000000 0.000000 -3.633681 0.438061 -4.753808 4.038363 -0.423733 0.268164 -1.186586 -6.670242 10.084265 0.000000 0.000000 0.000000 -2.192498 0.079197 -1.702337 4.372001 -0.846014 -17.660269 -0.609856 -0.706125 28.545827 1.769001 0.629999 -28.481439 0.000000 0.000000 0.000000 -32.159095 -8.578036 4.214944 -42.971430 -4.888626 -5.588094 -12.311036 -60.652107 11.114891 0.000000 0.000000 0.000000 25.419189 13.940254 6.901330 48.280513 6.460315 -4.330626 -4.812992 64.697678 0.811653 0.000000 0.000000 0.000000 
-0.000279 0.950313 0.002517 -0.773404 -0.117334 3.762972 6.255421 -0.259283 -3.619683 -6.517386 0.670612 -1.600182 3.986821 10.402894 8.616729 0.000000 0.000000 0.000000 -3.695202 0.463888 -5.069541 3.941336 -0.411580 0.007318 -0.747921 -5.999912 10.641385 0.000000 0.000000 0.000000 -2.748068 0.105588 -2.864684 4.725555 -0.948417 -17.751045 -0.504124 -0.905936 28.785806 1.756805 0.540788 -27.942937 0.000000 0.000000 0.000000 -33.011030 -8.627417 4.430724 -42.228852 -4.003279 -5.828713 -17.333995 -65.137901 15.462549 0.000000 0.000000 0.000000 25.157875 14.866541 7.323129 47.865266 6.642886 -4.191048 -6.864756 71.756975 -0.583368 0.000000 0.000000 0.000000 
-0.000666 0.951089 0.003855 -0.712638 -0.459340 3.534084 6.095694 -0.235203 -3.138069 -6.581826 0.678514 -1.787300 4.062563 10.564414 8.905751 0.000000 0.000000 0.000000 -3.652333 0.420994 -4.435915 3.506227 -0.368971 -0.601546 -0.253148 -5.278022 11.259550 0.000000 0.000000 0.000000 -2.679773 0.104348 -2.834610 4.754252 -0.987366 -17.461158 -0.537834 -0.682265 28.307700 1.805043 0.504288 -27.654435 0.000000 0.000000 0.000000 -32.833931 -8.674698 4.426772 -41.994162 -3.792280 -5.814653 -25.206289 -68.424228 21.945893 0.000000 0.000000 0.000000 25.699526 14.811567 7.300395 46.404289 8.538788 -3.354353 -9.487799 76.073738 -2.732481 0.000000 0.000000 0.000000 
-0.001200 0.951488 0.005268 -0.659193 -0.630355 3.440199 5.893375 -0.224171 -2.901075 -6.652976 0.688735 -1.785578 4.224327 10.785868 8.681344 0.000000 0.000000 0.000000 -3.717764 0.402081 -4.158211 3.509735 -0.370294 -0.881274 0.009600 -4.705039 11.013849 0.000000 0.000000 0.000000 -2.816117 0.106575 -3.029084 4.620725 -0.929697 -17.765888 -0.325105 -0.847530 28.629465 1.602266 0.584462 -27.906975 0.000000 0.000000 0.000000 -32.238544 -8.693353 4.580042 -42.146372 -3.990241 -5.838149 -33.862966 -69.868472 29.018091 0.000000 0.000000 0.000000 25.145993 15.675407 7.693715 46.125347 10.330468 -2.694999 -19.580318 79.373453 -11.258136 0.000000 0.000000 0.000000 
-0.001871 0.951650 0.006523 -0.605820 -0.943862 3.183112 5.902322 -0.207788 -2.677502 -6.730726 0.707083 -1.596606 4.419196 11.075870 8.561800 0.000000 0.000000 0.000000 -3.731828 0.369909 -3.688316 3.462341 -0.364663 -1.005096 0.304726 -4.170430 11.015139 0.000000 0.000000 0.000000 -2.926654 0.104085 -2.998222 4.611606 -0.953698 -17.508923 -0.111900 -0.526164 28.336968 1.718093 0.535909 -27.760150 0.000000 0.000000 0.000000 -31.928221 -8.752992 4.539139 -42.050256 -3.864367 -5.822736 -42.540091 -71.547698 36.570046 0.000000 0.000000 0.000000 25.351047 15.975370 7.925276 44.999585 11.679665 -2.172435 -31.544006 81.576514 -22.085626 0.000000 0.000000 0.000000 
-0.002551 0.951803 0.007587 -0.585156 -1.610686 3.209221 5.828349 -0.206449 -2.839085 -6.726486 0.731124 -1.101671 4.507496 11.131968 8.268965 0.000000 0.000000 0.000000 -3.804232 0.379418 -3.760564 3.516430 -0.364466 -1.046576 0.742764 -3.473190 11.204160 0.000000 0.000000 0.000000 -2.967644 0.110506 -3.234839 4.537712 -0.941201 -17.580602 0.045454 -0.176322 28.533557 1.830628 0.503024 -28.317738 0.000000 0.000000 0.000000 -31.387745 -8.566275 4.450103 -42.189188 -4.468149 -5.679658 -46.902686 -72.501709 40.763042 0.000000 0.000000 0.000000 25.156763 16.404447 8.147893 44.178940 13.435624 -1.566016 -47.733445 82.129827 -36.649163 0.000000 0.000000 0.000000 
-0.003101 0.952045 0.008494 -0.645553 -1.883218 3.243015 5.694160 -0.210951 -2.988171 -6.631501 0.733014 -0.814357 4.527162 11.097345 7.970593 0.000000 0.000000 0.000000 -3.717323 0.393527 -3.939884 3.472018 -0.355327 -0.741529 1.014913 -2.948686 11.131241 0.000000 0.000000 0.000000 -2.984871 0.117967 -3.599495 4.583444 -0.967643 -17.466379 0.259969 0.187986 28.576192 2.114551 0.375541 -28.244863 0.000000 0.000000 0.000000 -30.899009 -8.794775 4.515223 -42.772159 -4.959765 -5.567779 -47.970672 -73.076642 42.057933 0.000000 0.000000 0.000000 24.719104 16.592054 8.286255 42.994849 15.323624 -0.954193 -63.321747 80.232692 -49.212212 0.000000 0.000000 0.000000 
-0.003431 0.952144 0.009413 -0.700430 -2.217438 3.350756 5.597602 -0.211220 -3.030846 -6.563106 0.733845 -0.694654 4.647648 11.281096 7.950206 0.000000 0.000000 0.000000 -3.623098 0.393315 -3.895564 3.538903 -0.360114 -0.897344 1.110586 -2.918116 11.407473 0.000000 0.000000 0.000000 -2.899768 0.135967 -4.374271 4.557003 -0.990187 -17.140237 0.256779 0.217491 28.790594 2.152807 0.344148 -28.503436 0.000000 0.000000 0.000000 -30.846724 -8.760764 4.579682 -42.823974 -5.459300 -5.448197 -47.576341 -73.466263 42.085771 0.000000 0.000000 0.000000 24.262448 17.315414 8.614949 41.432351 17.437662 -0.294630 -75.869024 76.494763 -57.356916 0.000000 0.000000 0.000000 
-0.003530 0.952558 0.010537 -0.779130 -2.395680 3.506325 5.580125 -0.215161 -3.123197 -6.505066 0.726559 -0.842733 4.681578 11.330813 7.964137 0.000000 0.000000 0.000000 -3.605262 0.396014 -3.899306 3.587880 -0.364852 -1.144606 1.482794 -2.240188 11.469631 0.000000 0.000000 0.000000 -2.815994 0.146901 -4.721345 4.506410 -0.977478 -17.149839 0.339219 0.219757 28.710823 2.321175 0.248611 -28.640036 0.000000 0.000000 0.000000 -30.339103 -8.974886 4.761992 -43.460277 -5.913337 -5.373272 -42.705523 -73.898627 38.496093 0.000000 0.000000 0.000000 23.243235 17.570844 8.607564 39.411458 20.185497 0.488955 -79.754176 70.989548 -55.895070 0.000000 0.000000 0.000000 
-0.003422 0.952733 0.011943 -0.862313 -2.711499 3.682775 5.647611 -0.211211 -3.093936 -6.614901 0.744074 -0.838806 4.697867 11.372425 8.167165 0.000000 0.000000 0.000000 -3.612445 0.404076 -3.965862 3.476547 -0.353131 -1.242850 1.766859 -1.879761 11.820625 0.000000 0.000000 0.000000 -2.562461 0.165556 -5.178026 4.524284 -0.979528 -17.266523 0.166182 0.138806 28.804483 2.248477 0.258944 -28.868995 0.000000 0.000000 0.000000 -30.549920 -8.833155 4.811129 -43.039053 -6.038289 -5.336776 -37.372066 -73.609510 34.072055 0.000000 0.000000 0.000000 21.635447 17.858008 8.500654 37.133380 23.573292 1.328089 -82.305555 63.501055 -51.325930 0.000000 0.000000 0.000000 
-0.003253 0.953220 0.013730 -1.059542 -3.238489 3.662196 5.517783 -0.197684 -2.890947 -6.307977 0.710191 -1.223641 4.865780 11.651492 8.312218 0.000000 0.000000 0.000000 -3.501977 0.402678 -3.908935 3.540782 -0.353667 -1.194033 2.111058 -1.214547 11.659787 0.000000 0.000000 0.000000 -2.184758 0.186539 -5.496133 4.575719 -0.999023 -17.402913 -0.000859 0.281466 28.625417 2.907685 -0.130578 -28.755311 0.000000 0.000000 0.000000 -29.881795 -8.975921 4.968269 -43.523711 -5.838438 -5.457313 -29.424322 -72.811401 27.482343 0.000000 0.000000 0.000000 19.795582 17.990330 8.300724 34.130492 27.909286 2.193869 -80.444030 54.983268 -42.490220 0.000000 0.000000 0.000000 
-0.003076 0.953264 0.015917 -1.048801 -3.525767 3.686934 5.501332 -0.188486 -2.744523 -6.209419 0.707597 -1.052688 4.873545 11.679591 8.552961 0.000000 0.000000 0.000000 -3.554079 0.406278 -3.930845 3.344958 -0.333938 -1.125055 2.333003 -0.906125 11.838841 0.000000 0.000000 0.000000 -1.806906 0.204640 -5.701923 4.344454 -0.902501 -17.905216 -0.258737 0.234456 28.831576 3.067783 -0.219881 -29.230958 0.000000 0.000000 0.000000 -29.654863 -8.798564 4.959651 -43.369879 -5.478799 -5.608964 -22.856919 -71.643000 22.028677 0.000000 0.000000 0.000000 18.160675 18.177071 8.156146 30.413501 30.986812 2.375086 -79.886309 46.349501 -34.960378 0.000000 0.000000 0.000000 
-0.002943 0.953300 0.018338 -1.198545 -3.641320 3.617544 5.459213 -0.182996 -2.658882 -5.933659 0.683496 -0.810978 5.067360 11.989367 8.429945 0.000000 0.000000 0.000000 -3.557425 0.394731 -3.761683 3.352362 -0.333453 -1.093147 2.409125 -0.713631 11.708322 0.000000 0.000000 0.000000 -1.550220 0.216121 -5.811019 4.423162 -0.924359 -17.970483 -0.442305 0.300538 28.649597 3.654923 -0.534749 -29.180745 0.000000 0.000000 0.000000 -28.968765 -8.649486 4.824832 -43.665172 -4.543300 -5.928029 -17.997919 -69.274356 17.609702 0.000000 0.000000 0.000000 16.266115 17.875960 7.792359 27.093473 33.448538 2.306040 -78.603181 38.561274 -27.986326 0.000000 0.000000 0.000000 
-0.002798 0.953154 0.020824 -1.284621 -3.506024 3.716761 5.504428 -0.189974 -2.776843 -5.958429 0.688263 -0.601709 5.099585 12.083386 8.660401 0.000000 0.000000 0.000000 -3.597660 0.384360 -3.606946 3.407532 -0.340233 -1.205361 2.266142 -1.028747 11.829847 0.000000 0.000000 0.000000 -1.218503 0.238349 -6.159930 4.142429 -0.835246 -18.033805 -0.694055 0.072930 28.547032 3.661131 -0.577076 -29.014508 0.000000 0.000000 0.000000 -28.725714 -8.272863 4.615871 -43.647274 -3.751575 -6.191251 -14.453681 -66.556264 14.334071 0.000000 0.000000 0.000000 15.351787 17.830939 7.639640 24.174510 34.180933 1.884656 -78.403011 32.953847 -23.590720 0.000000 0.000000 0.000000 
